<?xml version="1.0" encoding="UTF-8" standalone="no"?>
<svg width="512" height="512" viewBox="0 0 512 512" fill="none" xmlns="http://www.w3.org/2000/svg">
  <rect width="512" height="512" fill="white"/>
  <g transform="translate(106, 106) scale(0.6)">
    <path d="M256 0C114.6 0 0 114.6 0 256s114.6 256 256 256s256-114.6 256-256S397.4 0 256 0zM256 464c-114.7 0-208-93.31-208-208S141.3 48 256 48s208 93.31 208 208S370.7 464 256 464z" fill="black"/>
    <path d="M352 128c0-17.67-14.33-32-32-32h-96c-17.67 0-32 14.33-32 32v256c0 17.67 14.33 32 32 32h96c17.67 0 32-14.33 32-32v-96h-64v64h-64V160h64v64h64V128z" fill="black"/>
  </g>
</svg>
